<svg xmlns="http://www.w3.org/2000/svg" width="16" height="16" version="1.1"><path fill="#1F0B2B" d="M0 0 C2.05078125 0.03255208 4.1015625 0.06510417 6.15234375 0.09765625 C6.48234375 1.74765625 6.81234375 3.39765625 7.15234375 5.09765625 C8.14234375 5.09765625 9.13234375 5.09765625 10.15234375 5.09765625 C10.15234375 8.06765625 10.15234375 11.03765625 10.15234375 14.09765625 C7.18234375 14.09765625 4.21234375 14.09765625 1.15234375 14.09765625 C1.15234375 13.10765625 1.15234375 12.11765625 1.15234375 11.09765625 C-0.82765625 11.09765625 -2.80765625 11.09765625 -4.84765625 11.09765625 C-4.84765625 10.10765625 -4.84765625 9.11765625 -4.84765625 8.09765625 C-4.18765625 8.09765625 -3.52765625 8.09765625 -2.84765625 8.09765625 C-2.86828125 6.96328125 -2.88890625 5.82890625 -2.91015625 4.66015625 C-2.83102423 0.1496313 -2.83102423 0.1496313 0 0 Z" transform="translate(5.84765625,1.90234375)"/></svg>